<?xml version="1.0" encoding="UTF-8" standalone="no"?>
<!-- Created with Inkscape (http://www.inkscape.org/) -->

<svg
   width="499.99997mm"
   height="470.1485mm"
   viewBox="0 0 499.99997 470.1485"
   version="1.1"
   id="svg1"
   xml:space="preserve"
   inkscape:version="1.3.2 (091e20ef0f, 2023-11-25)"
   sodipodi:docname="logo.svg"
   xmlns:inkscape="http://www.inkscape.org/namespaces/inkscape"
   xmlns:sodipodi="http://sodipodi.sourceforge.net/DTD/sodipodi-0.dtd"
   xmlns="http://www.w3.org/2000/svg"
   xmlns:svg="http://www.w3.org/2000/svg"><sodipodi:namedview
     id="namedview1"
     pagecolor="#ffffff"
     bordercolor="#000000"
     borderopacity="0.25"
     inkscape:showpageshadow="2"
     inkscape:pageopacity="0.0"
     inkscape:pagecheckerboard="0"
     inkscape:deskcolor="#d1d1d1"
     inkscape:document-units="mm"
     inkscape:zoom="0.2973261"
     inkscape:cx="-100.89932"
     inkscape:cy="733.20169"
     inkscape:window-width="1920"
     inkscape:window-height="1080"
     inkscape:window-x="0"
     inkscape:window-y="0"
     inkscape:window-maximized="0"
     inkscape:current-layer="layer1" /><defs
     id="defs1" /><g
     inkscape:label="Layer 1"
     inkscape:groupmode="layer"
     id="layer1"><g
       id="g6"
       transform="matrix(11.41897,0,0,11.41897,-338.86342,-225.54042)"><path
         style="fill:#fd5932"
         d="m 46.233048,60.768524 c 0.122213,-0.275254 0.588358,-1.252217 1.12637,-2.360686 0.288425,-0.594242 0.681373,-1.406791 0.873219,-1.805666 0.191846,-0.398874 0.518208,-1.071559 0.725248,-1.494854 0.20704,-0.423296 0.466831,-0.962775 0.577314,-1.198844 0.110482,-0.236069 0.343526,-0.722266 0.517876,-1.08044 0.498033,-1.02313 1.550641,-3.202036 1.673098,-3.463326 0.652214,-1.391644 1.202406,-2.50574 1.414615,-2.864483 0.764439,-1.2923 1.816855,-2.078291 3.210942,-2.398073 l 0.273042,-0.06263 6.941453,-0.0067 c 7.641912,-0.0074 7.273205,-0.01568 7.782018,0.17544 0.350034,0.131478 0.555513,0.258089 0.826179,0.509068 0.762132,0.706702 1.211802,1.868425 1.268943,3.27832 l 0.0189,0.466217 H 70.393911 67.325562 V 54.6189 c 0,3.386363 -0.0082,6.157025 -0.0182,6.157025 -0.025,0 -0.621521,-0.526857 -1.114039,-0.983928 -0.223858,-0.207747 -0.420527,-0.377722 -0.437042,-0.377722 -0.01652,0 -0.212992,0.157234 -0.436616,0.349409 -0.76251,0.655277 -1.374087,1.160246 -1.405195,1.160246 -0.01708,0 -0.172281,-0.123215 -0.344891,-0.27381 -0.743678,-0.648833 -1.782983,-1.531823 -1.802556,-1.531446 -0.01169,2.26e-4 -0.107846,0.07443 -0.21367,0.1649 -0.105823,0.09047 -0.432175,0.361903 -0.725226,0.603184 -0.293051,0.241282 -0.698402,0.575053 -0.900781,0.741713 -0.312317,0.257196 -0.375946,0.298033 -0.420764,0.270044 -0.04927,-0.03077 -1.000182,-0.832296 -1.76818,-1.490403 -0.185254,-0.158746 -0.351026,-0.279853 -0.368383,-0.269125 -0.03669,0.02267 -0.909479,0.748461 -1.626107,1.352222 -0.272826,0.229856 -0.515087,0.41792 -0.538357,0.41792 -0.03881,0 -0.244922,-0.171275 -1.667973,-1.386027 -0.435824,-0.37203 -0.487164,-0.407581 -0.532819,-0.368956 -0.02779,0.02351 -0.250331,0.208938 -0.49454,0.412064 -1.173024,0.975691 -1.620472,1.34371 -1.644331,1.352435 -0.01431,0.0052 -0.2639,-0.194574 -0.554644,-0.444017 -1.210087,-1.038188 -1.498719,-1.2842 -1.547386,-1.318894 -0.044,-0.03136 -0.08026,-0.01252 -0.256328,0.133205 -0.112795,0.09336 -0.350613,0.289181 -0.528485,0.435167 -0.843072,0.691942 -1.351436,1.123888 -1.365328,1.160091 -0.01084,0.02825 -0.07803,0.03973 -0.232459,0.03973 H 46.16405 Z m -1.448709,-1.767649 c -1.57169,-0.399612 -2.698754,-0.818819 -4.076948,-1.516401 -1.458725,-0.738344 -2.683488,-1.533428 -3.796939,-2.464871 -2.565194,-2.145881 -4.37329,-4.563838 -5.678452,-7.593766 -1.136248,-2.637791 -1.69075,-5.815581 -1.528895,-8.761919 0.153838,-2.800384 0.807036,-5.288932 2.043283,-7.784478 0.983095,-1.984524 2.313712,-3.806632 3.969445,-5.435645 3.223234,-3.171218 7.402554,-5.1477 11.824848,-5.592203 3.141212,-0.315737 6.313807,0.118091 9.158093,1.252298 1.631425,0.650558 3.128473,1.481459 4.469763,2.480836 2.475642,1.844567 4.525867,4.229492 5.883287,6.843738 0.13797,0.265716 0.246013,0.486896 0.240096,0.491513 -0.0059,0.0046 -0.277169,0.115331 -0.602781,0.246033 -1.156295,0.464139 -5.145875,2.067001 -6.778647,2.723402 -0.911714,0.366523 -1.686406,0.677479 -1.721538,0.691013 -0.05691,0.02192 -0.08226,-0.0044 -0.2325,-0.241386 -0.749096,-1.181651 -1.810856,-2.268489 -2.959742,-3.029648 -1.347242,-0.892574 -2.795648,-1.431802 -4.292156,-1.597929 -1.922119,-0.213374 -3.747949,0.104245 -5.433183,0.945152 -1.189778,0.593681 -2.344977,1.502076 -3.190166,2.508598 -1.19261,1.420261 -1.943978,3.099726 -2.221663,4.965886 -0.291935,1.961927 0.0011,4.055772 0.813334,5.811761 0.755043,1.632328 1.971521,3.071905 3.421231,4.048674 0.849146,0.572128 1.533563,0.905855 2.505095,1.2215 0.962155,0.312599 1.691448,0.431205 2.795504,0.454636 0.402944,0.0086 0.732626,0.01989 0.732626,0.02521 0,0.01138 -0.594299,1.242416 -1.613574,3.342367 -0.692467,1.426649 -1.050176,2.162555 -2.366904,4.869378 -0.304907,0.626803 -0.566041,1.169612 -0.5803,1.206244 -0.01426,0.03663 -0.0429,0.06582 -0.06366,0.06486 -0.02075,-9.59e-4 -0.344105,-0.07964 -0.718559,-0.174847 z"
         id="path8" /><path
         style="fill:#6A4C93"
         d="m 50.82504,60.897694 c -0.0089,-0.01443 0.01104,-0.03336 0.04435,-0.04207 0.04967,-0.01299 0.05428,-0.0083 0.02564,0.02624 -0.04088,0.04925 -0.0483,0.05093 -0.06999,0.01584 z m 8.703687,0.0016 c -0.0084,-0.01357 0.0036,-0.02467 0.02655,-0.02467 0.02299,0 0.03494,0.0111 0.02655,0.02467 -0.0084,0.01357 -0.02033,0.02467 -0.02655,0.02467 -0.0062,0 -0.01817,-0.0111 -0.02655,-0.02467 z m 7.705792,-0.201231 c -0.06844,-0.07429 -0.06871,-0.07603 -0.0057,-0.03764 0.03632,0.02214 0.07253,0.05719 0.08047,0.07789 0.02119,0.05523 0.0054,0.04672 -0.07474,-0.04026 z m -22.45018,-1.697156 c -1.57169,-0.399612 -2.698754,-0.818819 -4.076948,-1.516401 -1.458725,-0.738344 -2.683488,-1.533428 -3.796939,-2.464871 -2.565194,-2.145881 -4.37329,-4.563838 -5.678452,-7.593766 -1.136248,-2.637791 -1.69075,-5.815581 -1.528895,-8.761919 0.153838,-2.800384 0.807036,-5.288932 2.043283,-7.784478 0.983095,-1.984524 2.313712,-3.806632 3.969445,-5.435645 3.223234,-3.171218 7.402554,-5.1477 11.824848,-5.592203 3.141212,-0.315737 6.313807,0.118091 9.158093,1.252298 1.631425,0.650558 3.128473,1.481459 4.469763,2.480836 2.475642,1.844567 4.525867,4.229492 5.883287,6.843738 0.13797,0.265716 0.246013,0.486896 0.240096,0.491513 -0.0059,0.0046 -0.277169,0.115331 -0.602781,0.246033 -1.156295,0.464139 -5.145875,2.067001 -6.778647,2.723402 -0.911714,0.366523 -1.686406,0.677479 -1.721538,0.691013 -0.05691,0.02192 -0.08226,-0.0044 -0.2325,-0.241386 -0.749096,-1.181651 -1.810856,-2.268489 -2.959742,-3.029648 -1.347242,-0.892574 -2.795648,-1.431802 -4.292156,-1.597929 -1.922119,-0.213374 -3.747949,0.104245 -5.433183,0.945152 -1.189778,0.593681 -2.344977,1.502076 -3.190166,2.508598 -1.19261,1.420261 -1.943978,3.099726 -2.221663,4.965886 -0.291935,1.961927 0.0011,4.055772 0.813334,5.811761 0.755043,1.632328 1.971521,3.071905 3.421231,4.048674 0.849146,0.572128 1.533563,0.905855 2.505095,1.2215 0.962155,0.312599 1.691448,0.431205 2.795504,0.454636 0.402944,0.0086 0.732626,0.01989 0.732626,0.02521 0,0.01138 -0.594299,1.242416 -1.613574,3.342367 -0.692467,1.426649 -1.050176,2.162555 -2.366904,4.869378 -0.304907,0.626803 -0.566041,1.169612 -0.5803,1.206244 -0.01426,0.03663 -0.0429,0.06582 -0.06366,0.06486 -0.02075,-9.59e-4 -0.344105,-0.07964 -0.718559,-0.174847 z M 67.325805,48.059674 c 5.3e-4,-0.899501 0.174531,-1.686175 0.534625,-2.417097 0.180299,-0.365971 0.314978,-0.55115 0.619094,-0.851236 0.333828,-0.329404 0.586714,-0.488735 1.009006,-0.635725 0.292006,-0.101641 0.311146,-0.104302 0.750167,-0.104302 0.480669,0 0.687323,0.02569 0.994208,0.123612 0.453696,0.144762 0.93548,0.475812 1.217882,0.836848 0.61684,0.788599 0.920356,1.722837 0.98864,3.043086 l 0.01952,0.377414 -0.483998,1.05e-4 c -0.266199,5.8e-5 -1.646211,0.0089 -3.066693,0.01961 l -2.582694,0.01951 z"
         id="path7" /><path
         style="fill:#bc332a"
         d="m 50.82504,60.897694 c -0.0089,-0.01443 0.01104,-0.03336 0.04435,-0.04207 0.04967,-0.01299 0.05428,-0.0083 0.02564,0.02624 -0.04088,0.04925 -0.0483,0.05093 -0.06999,0.01584 z m 8.703687,0.0016 c -0.0084,-0.01357 0.0036,-0.02467 0.02655,-0.02467 0.02299,0 0.03494,0.0111 0.02655,0.02467 -0.0084,0.01357 -0.02033,0.02467 -0.02655,0.02467 -0.0062,0 -0.01817,-0.0111 -0.02655,-0.02467 z m 7.705792,-0.201231 c -0.06844,-0.07429 -0.06871,-0.07603 -0.0057,-0.03764 0.03632,0.02214 0.07253,0.05719 0.08047,0.07789 0.02119,0.05523 0.0054,0.04672 -0.07474,-0.04026 z m 0.09129,-12.638357 c 5.3e-4,-0.899501 0.174531,-1.686175 0.534625,-2.417097 0.180299,-0.365971 0.314978,-0.55115 0.619094,-0.851236 0.333828,-0.329404 0.586714,-0.488735 1.009006,-0.635725 0.292006,-0.101641 0.311146,-0.104302 0.750167,-0.104302 0.480669,0 0.687323,0.02569 0.994208,0.123612 0.453696,0.144762 0.93548,0.475812 1.217882,0.836848 0.61684,0.788599 0.920356,1.722837 0.98864,3.043086 l 0.01952,0.377414 -0.483998,1.05e-4 c -0.266199,5.8e-5 -1.646211,0.0089 -3.066693,0.01961 l -2.582694,0.01951 z"
         id="path6" /></g><g
       id="g4"
       transform="translate(66.707141,36.0902)" /></g></svg>
